<?xml version="1.0" encoding="utf-8"?>
<!-- Generator: Adobe Illustrator 24.1.2, SVG Export Plug-In . SVG Version: 6.00 Build 0)  -->
<svg version="1.1" id="Layer_1" xmlns="http://www.w3.org/2000/svg" xmlns:xlink="http://www.w3.org/1999/xlink" x="0px" y="0px"
	 viewBox="0 0 500 500" style="enable-background:new 0 0 500 500;" xml:space="preserve">
<path d="M424.99,321.3C396,384.32,332.31,428.06,258.4,428.06c-101.23,0-183.3-82.07-183.3-183.3c0-61.43,30.22-115.8,76.61-149.06
	C103.36,342.37,324.21,360.92,424.99,321.3z"/>
<path d="M281.53,175.37c86.1,0,75.97-25.32,81.04-81.04c0,50.65-20.26,86.1,70.91,86.1c-91.17-5.06-65.84,40.52-75.97,96.23
	C352.44,190.56,367.63,180.44,281.53,175.37z"/>
<path d="M207.45,102.63c60.7,3.18,54.67-19.47,54.67-53.18c3.74,43.44-11.12,53.18,52.43,53.18c-63.55-2.96-50.68,3.88-53.93,53.93
	C259.38,104.26,268.15,102.81,207.45,102.63z"/>
</svg>
