<?xml version="1.0" encoding="utf-8"?>
<!-- Generator: Adobe Illustrator 24.1.2, SVG Export Plug-In . SVG Version: 6.00 Build 0)  -->
<svg version="1.1" id="Layer_1" xmlns="http://www.w3.org/2000/svg" xmlns:xlink="http://www.w3.org/1999/xlink" x="0px" y="0px"
	 viewBox="0 0 500 500" style="enable-background:new 0 0 500 500;" xml:space="preserve">
<style type="text/css">
	.st0{fill:#FFFFFF;}
</style>
<path class="st0" d="M41,258.2c0.5,32.7,8.3,63.7,21.9,91.3l-56-35.7L41,258.2z"/>
<path class="st0" d="M54.9,101.2l59.3-7.3c-22,19.2-40,42.9-52.6,69.5L54.9,101.2z"/>
<path class="st0" d="M120.7,421.6c24.1,19.5,52.5,33.8,83.6,41.4l-61.1,21L120.7,421.6z"/>
<path class="st0" d="M251,6.2l38.4,37.6C278.3,41.9,266.7,41,255,41c-15,0-29.6,1.5-43.8,4.5L251,6.2z"/>
<path class="st0" d="M496.7,312.6l-46.3,29.8c10.4-23.1,16.8-48.4,18.3-75L496.7,312.6z"/>
<path class="st0" d="M302.8,463.6c28.7-6.5,55.2-18.8,78.2-35.6l-19.7,55.4L302.8,463.6z"/>
<path class="st0" d="M396.1,94.1l51.5,6.1l-5.2,51.4C430.4,129.9,414.7,110.4,396.1,94.1z"/>
<ellipse class="st0" cx="254" cy="255" rx="169.9" ry="170.8"/>
</svg>
